# xmcd
#
# Track frame offsets:
#	150
#	16070
#	25942
#	40639
#	51862
#	64795
#	76800
#	89297
#	100512
#	114957
#	127750
#	139787
#
# Disc length: 2015 seconds
#
# Revision: 1
# Processed by: cddbd v1.5.1PL2 Copyright (c) Steve Scherf et al.
# Submitted via: EasyCDDAExtractor 5.0.6
#
DISCID=8207dd0c
DTITLE=Various Artist - O Grito do Tempo
DYEAR=1900
DGENRE=Regional
TTITLE0=Darcy Silva - Honeyde Bertussi - O Grito do Tempo
TTITLE1=Herivelto Martins - Pedro de Almeida - Gaúcho Velho
TTITLE2=Honeyde Bertussi - Quando Vim da Minha Terra
TTITLE3=Pedro Raimundo - Contigo no Pensamento
TTITLE4=Valderes Peixoto de Oliveira - Honeyde Bertussi - Meu Desejo é Cantar
TTITLE5=Honeyde Bertussi - Xote dos 40 Anos
TTITLE6=Honeyde Bertussi - Barco da Esperança
TTITLE7=Arquelau Machado Ramos - Quero Quero
TTITLE8=Honeyde Bertussi - Adelar Bertussi - Acerte o Passo
TTITLE9=Honeyde Bertussi - Adelar Bertussi - Mané Romão
TTITLE10=Honeyde Bertussi - Saudade e Tristeza
TTITLE11=Osvaldinho - Me Despedir Cantando
EXTD=
EXTT0=
EXTT1=
EXTT2=
EXTT3=
EXTT4=
EXTT5=
EXTT6=
EXTT7=
EXTT8=
EXTT9=
EXTT10=
EXTT11=
PLAYORDER=
